<svg width="48" height="48" viewBox="0 0 48 48" fill="none" xmlns="http://www.w3.org/2000/svg">
<path d="M28.294 17.7605C29.4662 17.3511 30.7275 17.1283 32.0416 17.1283C33.3296 17.1283 34.5671 17.3424 35.7195 17.7365M14.0007 22.8399C13.4721 22.7373 12.9258 22.6835 12.3668 22.6835C7.70996 22.6835 3.93481 26.4143 3.93481 31.0164C3.93481 35.6185 7.70996 39.3492 12.3668 39.3492H32.0416C38.2507 39.3492 43.2843 34.3749 43.2843 28.2388C43.2843 23.3755 40.1225 19.2421 35.7195 17.7365M14.0007 22.8399C13.55 21.6376 13.3037 20.3373 13.3037 18.9801C13.3037 12.8439 18.3373 7.86963 24.5464 7.86963C30.3302 7.86963 35.0939 12.1857 35.7195 17.7365M14.0007 22.8399C15.1112 23.0553 16.1435 23.4863 17.0513 24.0867" stroke="#77A3D8" stroke-width="2.5" stroke-linecap="round"/>
</svg>
