<svg width="39" height="39" viewBox="0 0 39 39" fill="none" xmlns="http://www.w3.org/2000/svg">
<path d="M23.6197 14.4337C24.5723 14.101 25.5974 13.9199 26.6653 13.9199C27.7121 13.9199 28.7177 14.0939 29.6543 14.4142M12.0037 18.5616C11.5741 18.4783 11.1301 18.4346 10.6759 18.4346C6.89126 18.4346 3.82324 21.4665 3.82324 25.2066C3.82324 28.9467 6.89126 31.9786 10.6759 31.9786H26.6653C31.7114 31.9786 35.8021 27.936 35.8021 22.9493C35.8021 18.997 33.2325 15.6378 29.6543 14.4142M12.0037 18.5616C11.6374 17.5846 11.4373 16.5278 11.4373 15.4248C11.4373 10.4381 15.5279 6.39551 20.5741 6.39551C25.2745 6.39551 29.1459 9.90312 29.6543 14.4142M12.0037 18.5616C12.9062 18.7368 13.7451 19.087 14.4829 19.575" stroke="#77A3D8" stroke-width="2.03172" stroke-linecap="round"/>
</svg>
