<svg width="112" height="111" viewBox="0 0 142 141" fill="none" xmlns="http://www.w3.org/2000/svg">
<path d="M130.283 98.819L111.764 55.8141C108.391 47.9416 103.362 43.4766 97.623 43.1828C91.943 42.8891 86.4405 46.8253 82.2397 54.3453L70.998 74.3791C68.6313 78.6091 65.2588 81.1353 61.5905 81.4291C57.863 81.7816 54.1355 79.8428 51.118 76.0241L49.8163 74.3791C45.6155 69.1503 40.4088 66.6241 35.0838 67.1528C29.7588 67.6816 25.203 71.3241 22.1855 77.2578L11.9497 97.5266C8.28134 104.87 8.63634 113.389 12.9555 120.322C17.2747 127.254 24.7888 131.425 33.013 131.425H108.51C116.438 131.425 123.834 127.489 128.212 120.909C132.709 114.329 133.419 106.045 130.283 98.819Z" fill="white"/>
<path d="M41.2383 49.2332C52.2831 49.2332 61.2367 40.3427 61.2367 29.3757C61.2367 18.4087 52.2831 9.51819 41.2383 9.51819C30.1935 9.51819 21.24 18.4087 21.24 29.3757C21.24 40.3427 30.1935 49.2332 41.2383 49.2332Z" fill="white"/>
</svg>
