<svg width="48" height="48" viewBox="0 0 48 48" fill="none" xmlns="http://www.w3.org/2000/svg">
<path d="M17.7071 43.3709H29.512C39.3493 43.3709 43.2843 39.436 43.2843 29.5986V17.7938C43.2843 7.95643 39.3493 4.02148 29.512 4.02148H17.7071C7.86976 4.02148 3.93481 7.95643 3.93481 17.7938V29.5986C3.93481 39.436 7.86976 43.3709 17.7071 43.3709Z" stroke="#77A3D8" stroke-width="2.5" stroke-linecap="round" stroke-linejoin="round"/>
<path d="M23.6098 30.5819C27.4129 30.5819 30.4959 27.4988 30.4959 23.6957C30.4959 19.8926 27.4129 16.8096 23.6098 16.8096C19.8067 16.8096 16.7236 19.8926 16.7236 23.6957C16.7236 27.4988 19.8067 30.5819 23.6098 30.5819Z" stroke="#77A3D8" stroke-width="2.5" stroke-linecap="round" stroke-linejoin="round"/>
<path d="M34.6983 13.8582H34.7211" stroke="#77A3D8" stroke-width="3.86974" stroke-linecap="round" stroke-linejoin="round"/>
</svg>
